<?xml version="1.0" encoding="UTF-8"?>
<!DOCTYPE svg PUBLIC "-//W3C//DTD SVG 1.0//EN" "http://www.w3.org/TR/2001/REC-SVG-20010904/DTD/svg10.dtd">
<!-- Creator: CorelDRAW -->
<svg xmlns="http://www.w3.org/2000/svg" xml:space="preserve" width="64px" height="64px" version="1.0" shape-rendering="geometricPrecision" text-rendering="geometricPrecision" image-rendering="optimizeQuality" fill-rule="evenodd" clip-rule="evenodd"
viewBox="0 0 64 64"
 xmlns:xlink="http://www.w3.org/1999/xlink"
 xmlns:xodm="http://www.corel.com/coreldraw/odm/2003">
 <defs>
    <clipPath id="id0">
     <path d="M15.42 2.5l34.66 0c6.35,0 11.55,5.2 11.55,11.55l0 34.65c0,6.35 -5.2,11.55 -11.55,11.55l-34.66 0c-6.35,0 -11.55,-5.2 -11.55,-11.55l0 -34.65c0,-6.35 5.2,-11.55 11.55,-11.55z"/>
    </clipPath>
   <linearGradient id="id1" gradientUnits="userSpaceOnUse" x1="33.51" y1="45.75" x2="36.49" y2="9.12">
    <stop offset="0" stop-opacity="1" stop-color="#713286"/>
    <stop offset="1" stop-opacity="1" stop-color="#905DA1"/>
   </linearGradient>
 </defs>
 <g id="Слой_x0020_1">
  <metadata id="CorelCorpID_0Corel-Layer"/>
  <g>
   <g clip-path="url(#id0)">
    <polygon fill="#C159DE" points="61.63,2.5 61.63,2.84 3.87,2.84 3.87,2.5 "/>
    <polygon id="_1" fill="#9A599E" points="61.63,2.73 61.63,3.06 3.87,3.06 3.87,2.73 "/>
    <polygon id="_2" fill="#9A599E" points="61.63,2.95 61.63,3.29 3.87,3.29 3.87,2.95 "/>
    <polygon id="_3" fill="#9A599E" points="61.63,3.18 61.63,3.51 3.87,3.52 3.87,3.18 "/>
    <polygon id="_4" fill="#9A599E" points="61.63,3.4 61.63,3.74 3.87,3.74 3.87,3.4 "/>
    <polygon id="_5" fill="#9A599E" points="61.63,3.63 61.63,3.97 3.87,3.97 3.87,3.63 "/>
    <polygon id="_6" fill="#9A599E" points="61.63,3.85 61.63,4.19 3.87,4.19 3.87,3.85 "/>
    <polygon id="_7" fill="#9A599E" points="61.63,4.08 61.63,4.42 3.87,4.42 3.87,4.08 "/>
    <polygon id="_8" fill="#9A599E" points="61.63,4.3 61.63,4.64 3.87,4.64 3.87,4.3 "/>
    <polygon id="_9" fill="#9A599E" points="61.63,4.53 61.63,4.87 3.87,4.87 3.87,4.53 "/>
    <polygon id="_10" fill="#9A599E" points="61.63,4.76 61.63,5.09 3.87,5.09 3.87,4.76 "/>
    <polygon id="_11" fill="#9A599E" points="61.63,4.98 61.63,5.32 3.87,5.32 3.87,4.98 "/>
    <polygon id="_12" fill="#9A599E" points="61.63,5.21 61.63,5.55 3.87,5.55 3.87,5.21 "/>
    <polygon id="_13" fill="#9A599E" points="61.63,5.43 61.63,5.77 3.87,5.77 3.87,5.43 "/>
    <polygon id="_14" fill="#9A599E" points="61.63,5.66 61.63,6 3.87,6 3.87,5.66 "/>
    <polygon id="_15" fill="#9A599E" points="61.63,5.88 61.63,6.22 3.87,6.22 3.87,5.88 "/>
    <polygon id="_16" fill="#9A599E" points="61.63,6.11 61.63,6.45 3.87,6.45 3.87,6.11 "/>
    <polygon id="_17" fill="#9A599E" points="61.63,6.33 61.63,6.67 3.87,6.67 3.87,6.34 "/>
    <polygon id="_18" fill="#9A599E" points="61.63,6.56 61.63,6.9 3.87,6.9 3.87,6.56 "/>
    <polygon id="_19" fill="#9A599E" points="61.63,6.79 61.63,7.12 3.87,7.12 3.87,6.79 "/>
    <polygon id="_20" fill="#9A599E" points="61.63,7.01 61.63,7.35 3.87,7.35 3.87,7.01 "/>
    <polygon id="_21" fill="#9A599E" points="61.63,7.24 61.63,7.58 3.87,7.58 3.87,7.24 "/>
    <polygon id="_22" fill="#9A599E" points="61.63,7.46 61.63,7.8 3.87,7.8 3.87,7.46 "/>
    <polygon id="_23" fill="#9A599E" points="61.63,7.69 61.63,8.03 3.87,8.03 3.87,7.69 "/>
    <polygon id="_24" fill="#9A599E" points="61.63,7.91 61.63,8.25 3.87,8.25 3.87,7.91 "/>
    <polygon id="_25" fill="#9A599E" points="61.63,8.14 61.63,8.48 3.87,8.48 3.87,8.14 "/>
    <polygon id="_26" fill="#9A589E" points="61.63,8.36 61.63,8.7 3.87,8.7 3.87,8.37 "/>
    <polygon id="_27" fill="#9A589E" points="61.63,8.59 61.63,8.93 3.87,8.93 3.87,8.59 "/>
    <polygon id="_28" fill="#9A589E" points="61.63,8.82 61.63,9.15 3.87,9.16 3.87,8.82 "/>
    <polygon id="_29" fill="#9A589E" points="61.63,9.04 61.63,9.38 3.87,9.38 3.87,9.04 "/>
    <polygon id="_30" fill="#9A589E" points="61.63,9.27 61.63,9.61 3.87,9.61 3.87,9.27 "/>
    <polygon id="_31" fill="#9A589E" points="61.63,9.49 61.63,9.83 3.87,9.83 3.87,9.49 "/>
    <polygon id="_32" fill="#9A589E" points="61.63,9.72 61.63,10.06 3.87,10.06 3.87,9.72 "/>
    <polygon id="_33" fill="#9A589E" points="61.63,9.94 61.63,10.28 3.87,10.28 3.87,9.94 "/>
    <polygon id="_34" fill="#9A589E" points="61.63,10.17 61.63,10.51 3.87,10.51 3.87,10.17 "/>
    <polygon id="_35" fill="#9A589E" points="61.63,10.4 61.63,10.73 3.87,10.73 3.87,10.4 "/>
    <polygon id="_36" fill="#9A589E" points="61.63,10.62 61.63,10.96 3.87,10.96 3.87,10.62 "/>
    <polygon id="_37" fill="#9A589E" points="61.63,10.85 61.63,11.18 3.87,11.19 3.87,10.85 "/>
    <polygon id="_38" fill="#9A589E" points="61.63,11.07 61.63,11.41 3.87,11.41 3.87,11.07 "/>
    <polygon id="_39" fill="#9A589E" points="61.63,11.3 61.63,11.64 3.87,11.64 3.87,11.3 "/>
    <polygon id="_40" fill="#9A589E" points="61.63,11.52 61.63,11.86 3.87,11.86 3.87,11.52 "/>
    <polygon id="_41" fill="#9A589E" points="61.63,11.75 61.63,12.09 3.87,12.09 3.87,11.75 "/>
    <polygon id="_42" fill="#9A589E" points="61.63,11.97 61.63,12.31 3.87,12.31 3.87,11.97 "/>
    <polygon id="_43" fill="#99589E" points="61.63,12.2 61.63,12.54 3.87,12.54 3.87,12.2 "/>
    <polygon id="_44" fill="#99589E" points="61.63,12.43 61.63,12.76 3.87,12.76 3.87,12.43 "/>
    <polygon id="_45" fill="#99579D" points="61.63,12.65 61.63,12.99 3.87,12.99 3.87,12.65 "/>
    <polygon id="_46" fill="#99579D" points="61.63,12.88 61.63,13.22 3.87,13.22 3.87,12.88 "/>
    <polygon id="_47" fill="#99579D" points="61.63,13.1 61.63,13.44 3.87,13.44 3.87,13.1 "/>
    <polygon id="_48" fill="#99579D" points="61.63,13.33 61.63,13.67 3.87,13.67 3.87,13.33 "/>
    <polygon id="_49" fill="#99579D" points="61.63,13.55 61.63,13.89 3.87,13.89 3.87,13.55 "/>
    <polygon id="_50" fill="#99579D" points="61.63,13.78 61.63,14.12 3.87,14.12 3.87,13.78 "/>
    <polygon id="_51" fill="#99579D" points="61.63,14 61.63,14.34 3.87,14.34 3.87,14.01 "/>
    <polygon id="_52" fill="#99579D" points="61.63,14.23 61.63,14.57 3.87,14.57 3.87,14.23 "/>
    <polygon id="_53" fill="#99579D" points="61.63,14.46 61.63,14.79 3.87,14.79 3.87,14.46 "/>
    <polygon id="_54" fill="#99579D" points="61.63,14.68 61.63,15.02 3.87,15.02 3.87,14.68 "/>
    <polygon id="_55" fill="#98579D" points="61.63,14.91 61.63,15.25 3.87,15.25 3.87,14.91 "/>
    <polygon id="_56" fill="#98579D" points="61.63,15.13 61.63,15.47 3.87,15.47 3.87,15.13 "/>
    <polygon id="_57" fill="#98569D" points="61.63,15.36 61.63,15.7 3.87,15.7 3.87,15.36 "/>
    <polygon id="_58" fill="#98569D" points="61.63,15.58 61.63,15.92 3.87,15.92 3.87,15.58 "/>
    <polygon id="_59" fill="#98569D" points="61.63,15.81 61.63,16.15 3.87,16.15 3.87,15.81 "/>
    <polygon id="_60" fill="#98569D" points="61.63,16.03 61.63,16.37 3.87,16.37 3.87,16.04 "/>
    <polygon id="_61" fill="#98569D" points="61.63,16.26 61.63,16.6 3.87,16.6 3.87,16.26 "/>
    <polygon id="_62" fill="#98569D" points="61.63,16.49 61.63,16.82 3.87,16.83 3.87,16.49 "/>
    <polygon id="_63" fill="#98569D" points="61.63,16.71 61.63,17.05 3.87,17.05 3.87,16.71 "/>
    <polygon id="_64" fill="#98569D" points="61.63,16.94 61.63,17.28 3.87,17.28 3.87,16.94 "/>
    <polygon id="_65" fill="#98569D" points="61.63,17.16 61.63,17.5 3.87,17.5 3.87,17.16 "/>
    <polygon id="_66" fill="#98569D" points="61.63,17.39 61.63,17.73 3.87,17.73 3.87,17.39 "/>
    <polygon id="_67" fill="#98569C" points="61.63,17.61 61.63,17.95 3.87,17.95 3.87,17.61 "/>
    <polygon id="_68" fill="#98569C" points="61.63,17.84 61.63,18.18 3.87,18.18 3.87,17.84 "/>
    <polygon id="_69" fill="#98569C" points="61.63,18.07 61.63,18.4 3.87,18.4 3.87,18.07 "/>
    <polygon id="_70" fill="#98569C" points="61.63,18.29 61.63,18.63 3.87,18.63 3.87,18.29 "/>
    <polygon id="_71" fill="#98569C" points="61.63,18.52 61.63,18.85 3.87,18.86 3.87,18.52 "/>
    <polygon id="_72" fill="#98569C" points="61.63,18.74 61.63,19.08 3.87,19.08 3.87,18.74 "/>
    <polygon id="_73" fill="#97569C" points="61.63,18.97 61.63,19.31 3.87,19.31 3.87,18.97 "/>
    <polygon id="_74" fill="#97569C" points="61.63,19.19 61.63,19.53 3.87,19.53 3.87,19.19 "/>
    <polygon id="_75" fill="#97569C" points="61.63,19.42 61.63,19.76 3.87,19.76 3.87,19.42 "/>
    <polygon id="_76" fill="#97559C" points="61.63,19.64 61.63,19.98 3.87,19.98 3.87,19.64 "/>
    <polygon id="_77" fill="#97559C" points="61.63,19.87 61.63,20.21 3.87,20.21 3.87,19.87 "/>
    <polygon id="_78" fill="#97559C" points="61.63,20.1 61.63,20.43 3.87,20.43 3.87,20.1 "/>
    <polygon id="_79" fill="#97559C" points="61.63,20.32 61.63,20.66 3.87,20.66 3.87,20.32 "/>
    <polygon id="_80" fill="#97559C" points="61.63,20.55 61.63,20.88 3.87,20.89 3.87,20.55 "/>
    <polygon id="_81" fill="#96559C" points="61.63,20.77 61.63,21.11 3.87,21.11 3.87,20.77 "/>
    <polygon id="_82" fill="#96559C" points="61.63,21 61.63,21.34 3.87,21.34 3.87,21 "/>
    <polygon id="_83" fill="#96559C" points="61.63,21.22 61.63,21.56 3.87,21.56 3.87,21.22 "/>
    <polygon id="_84" fill="#96549B" points="61.63,21.45 61.63,21.79 3.87,21.79 3.87,21.45 "/>
    <polygon id="_85" fill="#96549B" points="61.63,21.67 61.63,22.01 3.87,22.01 3.87,21.68 "/>
    <polygon id="_86" fill="#96549B" points="61.63,21.9 61.63,22.24 3.87,22.24 3.87,21.9 "/>
    <polygon id="_87" fill="#95549B" points="61.63,22.13 61.63,22.46 3.87,22.46 3.87,22.13 "/>
    <polygon id="_88" fill="#95549B" points="61.63,22.35 61.63,22.69 3.87,22.69 3.87,22.35 "/>
    <polygon id="_89" fill="#95549B" points="61.63,22.58 61.63,22.92 3.87,22.92 3.87,22.58 "/>
    <polygon id="_90" fill="#95549B" points="61.63,22.8 61.63,23.14 3.87,23.14 3.87,22.8 "/>
    <polygon id="_91" fill="#95539B" points="61.63,23.03 61.63,23.37 3.87,23.37 3.87,23.03 "/>
    <polygon id="_92" fill="#95539B" points="61.63,23.25 61.63,23.59 3.87,23.59 3.87,23.25 "/>
    <polygon id="_93" fill="#95539B" points="61.63,23.48 61.63,23.82 3.87,23.82 3.87,23.48 "/>
    <polygon id="_94" fill="#95539B" points="61.63,23.7 61.63,24.04 3.87,24.04 3.87,23.71 "/>
    <polygon id="_95" fill="#95539B" points="61.63,23.93 61.63,24.27 3.87,24.27 3.87,23.93 "/>
    <polygon id="_96" fill="#95539B" points="61.63,24.16 61.63,24.49 3.87,24.49 3.87,24.16 "/>
    <polygon id="_97" fill="#95529A" points="61.63,24.38 61.63,24.72 3.87,24.72 3.87,24.38 "/>
    <polygon id="_98" fill="#95529A" points="61.63,24.61 61.63,24.95 3.87,24.95 3.87,24.61 "/>
    <polygon id="_99" fill="#95529A" points="61.63,24.83 61.63,25.17 3.87,25.17 3.87,24.83 "/>
    <polygon id="_100" fill="#94529A" points="61.63,25.06 61.63,25.4 3.87,25.4 3.87,25.06 "/>
    <polygon id="_101" fill="#94529A" points="61.63,25.28 61.63,25.62 3.87,25.62 3.87,25.28 "/>
    <polygon id="_102" fill="#94529A" points="61.63,25.51 61.63,25.85 3.87,25.85 3.87,25.51 "/>
    <polygon id="_103" fill="#94519A" points="61.63,25.74 61.63,26.07 3.87,26.07 3.87,25.74 "/>
    <polygon id="_104" fill="#94519A" points="61.63,25.96 61.63,26.3 3.87,26.3 3.87,25.96 "/>
    <polygon id="_105" fill="#93519A" points="61.63,26.19 61.63,26.52 3.87,26.53 3.87,26.19 "/>
    <polygon id="_106" fill="#93519A" points="61.63,26.41 61.63,26.75 3.87,26.75 3.87,26.41 "/>
    <polygon id="_107" fill="#93519A" points="61.63,26.64 61.63,26.98 3.87,26.98 3.87,26.64 "/>
    <polygon id="_108" fill="#93519A" points="61.63,26.86 61.63,27.2 3.87,27.2 3.87,26.86 "/>
    <polygon id="_109" fill="#935199" points="61.63,27.09 61.63,27.43 3.87,27.43 3.87,27.09 "/>
    <polygon id="_110" fill="#935199" points="61.63,27.31 61.63,27.65 3.87,27.65 3.87,27.31 "/>
    <polygon id="_111" fill="#935199" points="61.63,27.54 61.63,27.88 3.87,27.88 3.87,27.54 "/>
    <polygon id="_112" fill="#935199" points="61.63,27.77 61.63,28.1 3.87,28.1 3.87,27.77 "/>
    <polygon id="_113" fill="#935199" points="61.63,27.99 61.63,28.33 3.87,28.33 3.87,27.99 "/>
    <polygon id="_114" fill="#935199" points="61.63,28.22 61.63,28.55 3.87,28.56 3.87,28.22 "/>
    <polygon id="_115" fill="#925099" points="61.63,28.44 61.63,28.78 3.87,28.78 3.87,28.44 "/>
    <polygon id="_116" fill="#925099" points="61.63,28.67 61.63,29.01 3.87,29.01 3.87,28.67 "/>
    <polygon id="_117" fill="#925099" points="61.63,28.89 61.63,29.23 3.87,29.23 3.87,28.89 "/>
    <polygon id="_118" fill="#925099" points="61.63,29.12 61.63,29.46 3.87,29.46 3.87,29.12 "/>
    <polygon id="_119" fill="#925099" points="61.63,29.34 61.63,29.68 3.87,29.68 3.87,29.35 "/>
    <polygon id="_120" fill="#914F98" points="61.63,29.57 61.63,29.91 3.87,29.91 3.87,29.57 "/>
    <polygon id="_121" fill="#914F98" points="61.63,29.8 61.63,30.13 3.87,30.13 3.87,29.8 "/>
    <polygon id="_122" fill="#914F98" points="61.63,30.02 61.63,30.36 3.87,30.36 3.87,30.02 "/>
    <polygon id="_123" fill="#914F98" points="61.63,30.25 61.63,30.59 3.87,30.59 3.87,30.25 "/>
    <polygon id="_124" fill="#914F98" points="61.63,30.47 61.63,30.81 3.87,30.81 3.87,30.47 "/>
    <polygon id="_125" fill="#904E98" points="61.63,30.7 61.63,31.04 3.87,31.04 3.87,30.7 "/>
    <polygon id="_126" fill="#904E98" points="61.63,30.92 61.63,31.26 3.87,31.26 3.87,30.92 "/>
    <polygon id="_127" fill="#904E98" points="61.63,31.15 61.63,31.49 3.87,31.49 3.87,31.15 "/>
    <polygon id="_128" fill="#904E98" points="61.63,31.37 61.63,31.71 3.87,31.71 3.87,31.38 "/>
    <polygon id="_129" fill="#904E98" points="61.63,31.6 61.63,31.94 3.87,31.94 3.87,31.6 "/>
    <polygon id="_130" fill="#904D97" points="61.63,31.83 61.63,32.16 3.87,32.16 3.87,31.83 "/>
    <polygon id="_131" fill="#904D97" points="61.63,32.05 61.63,32.39 3.87,32.39 3.87,32.05 "/>
    <polygon id="_132" fill="#904D97" points="61.63,32.28 61.63,32.62 3.87,32.62 3.87,32.28 "/>
    <polygon id="_133" fill="#904D97" points="61.63,32.5 61.63,32.84 3.87,32.84 3.87,32.5 "/>
    <polygon id="_134" fill="#8F4D97" points="61.63,32.73 61.63,33.07 3.87,33.07 3.87,32.73 "/>
    <polygon id="_135" fill="#8F4D97" points="61.63,32.95 61.63,33.29 3.87,33.29 3.87,32.95 "/>
    <polygon id="_136" fill="#8F4D97" points="61.63,33.18 61.63,33.52 3.87,33.52 3.87,33.18 "/>
    <polygon id="_137" fill="#8F4D97" points="61.63,33.41 61.63,33.74 3.87,33.74 3.87,33.41 "/>
    <polygon id="_138" fill="#8E4D97" points="61.63,33.63 61.63,33.97 3.87,33.97 3.87,33.63 "/>
    <polygon id="_139" fill="#8E4C96" points="61.63,33.86 61.63,34.19 3.87,34.2 3.87,33.86 "/>
    <polygon id="_140" fill="#8E4C96" points="61.63,34.08 61.63,34.42 3.87,34.42 3.87,34.08 "/>
    <polygon id="_141" fill="#8E4C96" points="61.63,34.31 61.63,34.65 3.87,34.65 3.87,34.31 "/>
    <polygon id="_142" fill="#8D4C96" points="61.63,34.53 61.63,34.87 3.87,34.87 3.87,34.53 "/>
    <polygon id="_143" fill="#8E4B96" points="61.63,34.76 61.63,35.1 3.87,35.1 3.87,34.76 "/>
    <polygon id="_144" fill="#8E4B96" points="61.63,34.98 61.63,35.32 3.87,35.32 3.87,34.98 "/>
    <polygon id="_145" fill="#8E4B96" points="61.63,35.21 61.63,35.55 3.87,35.55 3.87,35.21 "/>
    <polygon id="_146" fill="#8D4B96" points="61.63,35.44 61.63,35.77 3.87,35.77 3.87,35.44 "/>
    <polygon id="_147" fill="#8D4B96" points="61.63,35.66 61.63,36 3.87,36 3.87,35.66 "/>
    <polygon id="_148" fill="#8D4A95" points="61.63,35.89 61.63,36.22 3.87,36.23 3.87,35.89 "/>
    <polygon id="_149" fill="#8D4A95" points="61.63,36.11 61.63,36.45 3.87,36.45 3.87,36.11 "/>
    <polygon id="_150" fill="#8C4A95" points="61.63,36.34 61.63,36.68 3.87,36.68 3.87,36.34 "/>
    <polygon id="_151" fill="#8C4A95" points="61.63,36.56 61.63,36.9 3.87,36.9 3.87,36.56 "/>
    <polygon id="_152" fill="#8C4A95" points="61.63,36.79 61.63,37.13 3.87,37.13 3.87,36.79 "/>
    <polygon id="_153" fill="#8C4A95" points="61.63,37.01 61.63,37.35 3.87,37.35 3.87,37.01 "/>
    <polygon id="_154" fill="#8B4A95" points="61.63,37.24 61.63,37.58 3.87,37.58 3.87,37.24 "/>
    <polygon id="_155" fill="#8B4A95" points="61.63,37.47 61.63,37.8 3.87,37.8 3.87,37.47 "/>
    <polygon id="_156" fill="#8B4994" points="61.63,37.69 61.63,38.03 3.87,38.03 3.87,37.69 "/>
    <polygon id="_157" fill="#8B4994" points="61.63,37.92 61.63,38.26 3.87,38.26 3.87,37.92 "/>
    <polygon id="_158" fill="#8B4994" points="61.63,38.14 61.63,38.48 3.87,38.48 3.87,38.14 "/>
    <polygon id="_159" fill="#8B4994" points="61.63,38.37 61.63,38.71 3.87,38.71 3.87,38.37 "/>
    <polygon id="_160" fill="#8B4894" points="61.63,38.59 61.63,38.93 3.87,38.93 3.87,38.59 "/>
    <polygon id="_161" fill="#8B4894" points="61.63,38.82 61.63,39.16 3.87,39.16 3.87,38.82 "/>
    <polygon id="_162" fill="#8A4894" points="61.63,39.04 61.63,39.38 3.87,39.38 3.87,39.05 "/>
    <polygon id="_163" fill="#8A4894" points="61.63,39.27 61.63,39.61 3.87,39.61 3.87,39.27 "/>
    <polygon id="_164" fill="#8A4794" points="61.63,39.5 61.63,39.83 3.87,39.83 3.87,39.5 "/>
    <polygon id="_165" fill="#8A4794" points="61.63,39.72 61.63,40.06 3.87,40.06 3.87,39.72 "/>
    <polygon id="_166" fill="#894794" points="61.63,39.95 61.63,40.29 3.87,40.29 3.87,39.95 "/>
    <polygon id="_167" fill="#894794" points="61.63,40.17 61.63,40.51 3.87,40.51 3.87,40.17 "/>
    <polygon id="_168" fill="#894793" points="61.63,40.4 61.63,40.74 3.87,40.74 3.87,40.4 "/>
    <polygon id="_169" fill="#884793" points="61.63,40.62 61.63,40.96 3.87,40.96 3.87,40.62 "/>
    <polygon id="_170" fill="#884793" points="61.63,40.85 61.63,41.19 3.87,41.19 3.87,40.85 "/>
    <polygon id="_171" fill="#884793" points="61.63,41.08 61.63,41.41 3.87,41.41 3.87,41.08 "/>
    <polygon id="_172" fill="#884693" points="61.63,41.3 61.63,41.64 3.87,41.64 3.87,41.3 "/>
    <polygon id="_173" fill="#884693" points="61.63,41.53 61.63,41.86 3.87,41.87 3.87,41.53 "/>
    <polygon id="_174" fill="#884693" points="61.63,41.75 61.63,42.09 3.87,42.09 3.87,41.75 "/>
    <polygon id="_175" fill="#884693" points="61.63,41.98 61.63,42.32 3.87,42.32 3.87,41.98 "/>
    <polygon id="_176" fill="#884592" points="61.63,42.2 61.63,42.54 3.87,42.54 3.87,42.2 "/>
    <polygon id="_177" fill="#874592" points="61.63,42.43 61.63,42.77 3.87,42.77 3.87,42.43 "/>
    <polygon id="_178" fill="#874592" points="61.63,42.65 61.63,42.99 3.87,42.99 3.87,42.65 "/>
    <polygon id="_179" fill="#874592" points="61.63,42.88 61.63,43.22 3.87,43.22 3.87,42.88 "/>
    <polygon id="_180" fill="#864492" points="61.63,43.11 61.63,43.44 3.87,43.44 3.87,43.11 "/>
    <polygon id="_181" fill="#864492" points="61.63,43.33 61.63,43.67 3.87,43.67 3.87,43.33 "/>
    <polygon id="_182" fill="#864492" points="61.63,43.56 61.63,43.89 3.87,43.9 3.87,43.56 "/>
    <polygon id="_183" fill="#864492" points="61.63,43.78 61.63,44.12 3.87,44.12 3.87,43.78 "/>
    <polygon id="_184" fill="#864491" points="61.63,44.01 61.63,44.35 3.87,44.35 3.87,44.01 "/>
    <polygon id="_185" fill="#864491" points="61.63,44.23 61.63,44.57 3.87,44.57 3.87,44.23 "/>
    <polygon id="_186" fill="#864491" points="61.63,44.46 61.63,44.8 3.87,44.8 3.87,44.46 "/>
    <polygon id="_187" fill="#864491" points="61.63,44.68 61.63,45.02 3.87,45.02 3.87,44.68 "/>
    <polygon id="_188" fill="#854391" points="61.63,44.91 61.63,45.25 3.87,45.25 3.87,44.91 "/>
    <polygon id="_189" fill="#854391" points="61.63,45.14 61.63,45.47 3.87,45.47 3.87,45.14 "/>
    <polygon id="_190" fill="#854391" points="61.63,45.36 61.63,45.7 3.87,45.7 3.87,45.36 "/>
    <polygon id="_191" fill="#844391" points="61.63,45.59 61.63,45.93 3.87,45.93 3.87,45.59 "/>
    <polygon id="_192" fill="#844290" points="61.63,45.81 61.63,46.15 3.87,46.15 3.87,45.81 "/>
    <polygon id="_193" fill="#844290" points="61.63,46.04 61.63,46.38 3.87,46.38 3.87,46.04 "/>
    <polygon id="_194" fill="#844290" points="61.63,46.26 61.63,46.6 3.87,46.6 3.87,46.26 "/>
    <polygon id="_195" fill="#834290" points="61.63,46.49 61.63,46.83 3.87,46.83 3.87,46.49 "/>
    <polygon id="_196" fill="#834290" points="61.63,46.71 61.63,47.05 3.87,47.05 3.87,46.72 "/>
    <polygon id="_197" fill="#834290" points="61.63,46.94 61.63,47.28 3.87,47.28 3.87,46.94 "/>
    <polygon id="_198" fill="#834290" points="61.63,47.17 61.63,47.5 3.87,47.5 3.87,47.17 "/>
    <polygon id="_199" fill="#834290" points="61.63,47.39 61.63,47.73 3.87,47.73 3.87,47.39 "/>
    <polygon id="_200" fill="#834190" points="61.63,47.62 61.63,47.96 3.87,47.96 3.87,47.62 "/>
    <polygon id="_201" fill="#834190" points="61.63,47.84 61.63,48.18 3.87,48.18 3.87,47.84 "/>
    <polygon id="_202" fill="#834190" points="61.63,48.07 61.63,48.41 3.87,48.41 3.87,48.07 "/>
    <polygon id="_203" fill="#824190" points="61.63,48.29 61.63,48.63 3.87,48.63 3.87,48.29 "/>
    <polygon id="_204" fill="#824190" points="61.63,48.52 61.63,48.86 3.87,48.86 3.87,48.52 "/>
    <polygon id="_205" fill="#82408F" points="61.63,48.74 61.63,49.08 3.87,49.08 3.87,48.75 "/>
    <polygon id="_206" fill="#82408F" points="61.63,48.97 61.63,49.31 3.87,49.31 3.87,48.97 "/>
    <polygon id="_207" fill="#81408F" points="61.63,49.2 61.63,49.53 3.87,49.53 3.87,49.2 "/>
    <polygon id="_208" fill="#81408F" points="61.63,49.42 61.63,49.76 3.87,49.76 3.87,49.42 "/>
    <polygon id="_209" fill="#81408F" points="61.63,49.65 61.63,49.99 3.87,49.99 3.87,49.65 "/>
    <polygon id="_210" fill="#81408F" points="61.63,49.87 61.63,50.21 3.87,50.21 3.87,49.87 "/>
    <polygon id="_211" fill="#81408F" points="61.63,50.1 61.63,50.44 3.87,50.44 3.87,50.1 "/>
    <polygon id="_212" fill="#81408F" points="61.63,50.32 61.63,50.66 3.87,50.66 3.87,50.32 "/>
    <polygon id="_213" fill="#813F8F" points="61.63,50.55 61.63,50.89 3.87,50.89 3.87,50.55 "/>
    <polygon id="_214" fill="#813F8F" points="61.63,50.78 61.63,51.11 3.87,51.11 3.87,50.78 "/>
    <polygon id="_215" fill="#803F8F" points="61.63,51 61.63,51.34 3.87,51.34 3.87,51 "/>
    <polygon id="_216" fill="#803F8F" points="61.63,51.23 61.63,51.56 3.87,51.57 3.87,51.23 "/>
    <polygon id="_217" fill="#803F8F" points="61.63,51.45 61.63,51.79 3.87,51.79 3.87,51.45 "/>
    <polygon id="_218" fill="#803E8E" points="61.63,51.68 61.63,52.02 3.87,52.02 3.87,51.68 "/>
    <polygon id="_219" fill="#803E8E" points="61.63,51.9 61.63,52.24 3.87,52.24 3.87,51.9 "/>
    <polygon id="_220" fill="#7F3E8E" points="61.63,52.13 61.63,52.47 3.87,52.47 3.87,52.13 "/>
    <polygon id="_221" fill="#7F3E8E" points="61.63,52.35 61.63,52.69 3.87,52.69 3.87,52.35 "/>
    <polygon id="_222" fill="#7F3E8E" points="61.63,52.58 61.63,52.92 3.87,52.92 3.87,52.58 "/>
    <polygon id="_223" fill="#7F3E8E" points="61.63,52.81 61.63,53.14 3.87,53.14 3.87,52.81 "/>
    <polygon id="_224" fill="#7F3E8E" points="61.63,53.03 61.63,53.37 3.87,53.37 3.87,53.03 "/>
    <polygon id="_225" fill="#7E3E8E" points="61.63,53.26 61.63,53.6 3.87,53.6 3.87,53.26 "/>
    <polygon id="_226" fill="#7E3E8E" points="61.63,53.48 61.63,53.82 3.87,53.82 3.87,53.48 "/>
    <polygon id="_227" fill="#7E3E8E" points="61.63,53.71 61.63,54.05 3.87,54.05 3.87,53.71 "/>
    <polygon id="_228" fill="#7E3E8E" points="61.63,53.93 61.63,54.27 3.87,54.27 3.87,53.93 "/>
    <polygon id="_229" fill="#7E3D8D" points="61.63,54.16 61.63,54.5 3.87,54.5 3.87,54.16 "/>
    <polygon id="_230" fill="#7E3D8D" points="61.63,54.38 61.63,54.72 3.87,54.72 3.87,54.39 "/>
    <polygon id="_231" fill="#7E3D8D" points="61.63,54.61 61.63,54.95 3.87,54.95 3.87,54.61 "/>
    <polygon id="_232" fill="#7E3D8D" points="61.63,54.84 61.63,55.17 3.87,55.17 3.87,54.84 "/>
    <polygon id="_233" fill="#7E3D8D" points="61.63,55.06 61.63,55.4 3.87,55.4 3.87,55.06 "/>
    <polygon id="_234" fill="#7E3D8D" points="61.63,55.29 61.63,55.63 3.87,55.63 3.87,55.29 "/>
    <polygon id="_235" fill="#7E3C8D" points="61.63,55.51 61.63,55.85 3.87,55.85 3.87,55.51 "/>
    <polygon id="_236" fill="#7D3D8D" points="61.63,55.74 61.63,56.08 3.87,56.08 3.87,55.74 "/>
    <polygon id="_237" fill="#7D3D8D" points="61.63,55.96 61.63,56.3 3.87,56.3 3.87,55.96 "/>
    <polygon id="_238" fill="#7D3D8D" points="61.63,56.19 61.63,56.53 3.87,56.53 3.87,56.19 "/>
    <polygon id="_239" fill="#7D3D8D" points="61.63,56.41 61.63,56.75 3.87,56.75 3.87,56.42 "/>
    <polygon id="_240" fill="#7D3D8D" points="61.63,56.64 61.63,56.98 3.87,56.98 3.87,56.64 "/>
    <polygon id="_241" fill="#7D3D8D" points="61.63,56.87 61.63,57.2 3.87,57.2 3.87,56.87 "/>
    <polygon id="_242" fill="#7D3D8D" points="61.63,57.09 61.63,57.43 3.87,57.43 3.87,57.09 "/>
    <polygon id="_243" fill="#7D3D8D" points="61.63,57.32 61.63,57.66 3.87,57.66 3.87,57.32 "/>
    <polygon id="_244" fill="#7D3C8D" points="61.63,57.54 61.63,57.88 3.87,57.88 3.87,57.54 "/>
    <polygon id="_245" fill="#7C3C8D" points="61.63,57.77 61.63,58.11 3.87,58.11 3.87,57.77 "/>
    <polygon id="_246" fill="#7C3C8D" points="61.63,57.99 61.63,58.33 3.87,58.33 3.87,57.99 "/>
    <polygon id="_247" fill="#7C3C8D" points="61.63,58.22 61.63,58.56 3.87,58.56 3.87,58.22 "/>
    <polygon id="_248" fill="#7C3C8D" points="61.63,58.45 61.63,58.78 3.87,58.78 3.87,58.45 "/>
    <polygon id="_249" fill="#7C3C8D" points="61.63,58.67 61.63,59.01 3.87,59.01 3.87,58.67 "/>
    <polygon id="_250" fill="#7C3C8D" points="61.63,58.9 61.63,59.23 3.87,59.24 3.87,58.9 "/>
    <polygon id="_251" fill="#7C3C8D" points="61.63,59.12 61.63,59.46 3.87,59.46 3.87,59.12 "/>
    <polygon id="_252" fill="#7C3C8D" points="61.63,59.35 61.63,59.69 3.87,59.69 3.87,59.35 "/>
    <polygon id="_253" fill="#7C3C8D" points="61.63,59.57 61.63,59.91 3.87,59.91 3.87,59.57 "/>
    <polygon id="_254" fill="#7C3C8D" points="61.63,59.8 61.63,60.14 3.87,60.14 3.87,59.8 "/>
    <polygon id="_255" fill="#7C3C8D" points="61.63,60.02 61.63,60.25 3.87,60.25 3.87,60.02 "/>
   </g>
  </g>
  <path id="_8675012_ic_fluent_flashlight_regular_icon.svg" fill="url(#id1)" fill-rule="nonzero" d="M41.89 13.92c0,-0.77 -0.62,-1.39 -1.39,-1.39 -0.77,0 -1.39,0.62 -1.39,1.39l0 1.84c0,0.77 0.62,1.39 1.39,1.39 0.77,0 1.39,-0.62 1.39,-1.39l0 -1.84zm7.45 0.86c-0.54,-0.54 -1.42,-0.54 -1.96,0l-3.7 3.7c-0.54,0.55 -0.54,1.42 0,1.97 0.54,0.54 1.42,0.54 1.96,0l3.7 -3.7c0.54,-0.55 0.54,-1.42 0,-1.97zm-24.97 26.94l2.78 -2.78c0.54,-0.54 0.54,-1.42 0,-1.96 -0.55,-0.54 -1.42,-0.54 -1.97,0l-2.77 2.77c-0.54,0.55 -0.54,1.42 0,1.97 0.54,0.54 1.42,0.54 1.96,0zm0.41 -20.41l0 8.68 -9.66 9.65c-1.62,1.63 -1.62,4.26 0,5.89l3.48 3.47c1.62,1.63 4.26,1.63 5.88,0l9.66 -9.65 8.67 0c0.37,0 0.72,-0.15 0.98,-0.41l3.59 -3.59c1.62,-1.62 1.62,-4.26 0,-5.88l-12.72 -12.72c-1.63,-1.63 -4.26,-1.63 -5.89,0l-3.59 3.58c-0.26,0.26 -0.4,0.62 -0.4,0.98zm5.95 -2.6c0.54,-0.54 1.42,-0.54 1.96,0l12.73 12.72c0.54,0.54 0.54,1.42 0,1.96l-2.61 2.61 -14.68 -14.69 2.6 -2.6zm-3.18 5.95l11.91 11.91 -5.32 0 -6.59 -6.58 0 -5.33zm-1.38 7.86l5.43 5.44 -9.08 9.08c-0.54,0.54 -1.42,0.54 -1.96,0l-3.48 -3.47c-0.54,-0.55 -0.54,-1.42 0,-1.97l9.09 -9.08zm22.19 -7.51l1.85 0c0.77,0 1.39,-0.62 1.39,-1.38 0,-0.77 -0.62,-1.39 -1.39,-1.39l-1.85 0c-0.77,0 -1.39,0.62 -1.39,1.39 0,0.76 0.62,1.38 1.39,1.38z"/>
 </g>
</svg>
